<svg width="16" height="16" viewBox="0 0 16 16" fill="none" xmlns="http://www.w3.org/2000/svg">
<path d="M15.0887 7.09629L8.63289 0.640516C8.53931 0.546933 8.44059 0.480907 8.33674 0.442441C8.23291 0.403991 8.12074 0.384766 8.00022 0.384766C7.8797 0.384766 7.76753 0.403991 7.66369 0.442441C7.55984 0.480907 7.46113 0.546932 7.36754 0.640516L0.902168 7.10589C0.763701 7.24436 0.691902 7.41423 0.686768 7.61552C0.681652 7.81678 0.756652 7.99498 0.911768 8.15012C1.05663 8.30523 1.22971 8.38536 1.43099 8.39049C1.63226 8.39561 1.81046 8.32061 1.96559 8.16549L7.25024 2.88084L7.25024 14.4886C7.25024 14.7014 7.32204 14.8796 7.46562 15.0232C7.6092 15.1667 7.7874 15.2385 8.00022 15.2385C8.21303 15.2385 8.39123 15.1667 8.53482 15.0232C8.6784 14.8796 8.75019 14.7014 8.75019 14.4886L8.75019 2.88084L14.0445 8.17512C14.1829 8.31357 14.3553 8.38536 14.5617 8.39049C14.7682 8.39561 14.9438 8.32061 15.0887 8.16549C15.2438 8.02062 15.3213 7.84499 15.3213 7.63859C15.3213 7.43217 15.2438 7.25141 15.0887 7.09629Z" fill="white"/>
</svg>
