<svg width="16" height="16" viewBox="0 0 16 16" fill="none" xmlns="http://www.w3.org/2000/svg">
<path d="M7.09629 15.0884L0.640516 8.63265C0.546932 8.53907 0.480907 8.44035 0.44244 8.3365C0.40399 8.23267 0.384766 8.12049 0.384766 7.99997C0.384766 7.87946 0.40399 7.76728 0.44244 7.66345C0.480907 7.5596 0.546932 7.46088 0.640516 7.3673L7.10589 0.901924C7.24436 0.763458 7.41423 0.691658 7.61552 0.686524C7.81678 0.681408 7.99498 0.756408 8.15012 0.911524C8.30523 1.05639 8.38536 1.22947 8.39049 1.43075C8.39561 1.63202 8.32061 1.81022 8.16549 1.96535L2.88084 7.25H14.4886C14.7014 7.25 14.8796 7.32179 15.0232 7.46537C15.1667 7.60896 15.2385 7.78716 15.2385 7.99997C15.2385 8.21279 15.1667 8.39099 15.0232 8.53457C14.8796 8.67816 14.7014 8.74995 14.4886 8.74995H2.88084L8.17512 14.0442C8.31357 14.1827 8.38536 14.3551 8.39049 14.5615C8.39561 14.7679 8.32061 14.9436 8.16549 15.0884C8.02062 15.2435 7.84499 15.3211 7.63859 15.3211C7.43217 15.3211 7.25141 15.2435 7.09629 15.0884Z" fill="white"/>
</svg>
