<svg width="16" height="16" viewBox="0 0 16 16" fill="none" xmlns="http://www.w3.org/2000/svg">
<path d="M8.90371 15.0884L15.3595 8.63265C15.4531 8.53907 15.5191 8.44035 15.5576 8.3365C15.596 8.23267 15.6152 8.12049 15.6152 7.99997C15.6152 7.87946 15.596 7.76728 15.5576 7.66345C15.5191 7.5596 15.4531 7.46088 15.3595 7.3673L8.89411 0.901924C8.75564 0.763458 8.58577 0.691658 8.38448 0.686524C8.18322 0.681408 8.00502 0.756408 7.84988 0.911524C7.69477 1.05639 7.61464 1.22947 7.60951 1.43075C7.60439 1.63202 7.67939 1.81022 7.83451 1.96535L13.1192 7.25H1.51143C1.29862 7.25 1.12042 7.32179 0.976834 7.46537C0.833251 7.60896 0.761459 7.78716 0.761459 7.99997C0.761459 8.21279 0.833251 8.39099 0.976834 8.53457C1.12042 8.67816 1.29862 8.74995 1.51143 8.74995H13.1192L7.82488 14.0442C7.68643 14.1827 7.61464 14.3551 7.60951 14.5615C7.60439 14.7679 7.67939 14.9436 7.83451 15.0884C7.97938 15.2435 8.15501 15.3211 8.36141 15.3211C8.56783 15.3211 8.74859 15.2435 8.90371 15.0884Z" fill="white"/>
</svg>
