<svg width="167" height="61" viewBox="0 0 167 61" fill="none" xmlns="http://www.w3.org/2000/svg">
<path d="M4.05585 57.5709C3.01271 57.5709 2.28252 57.3754 1.86526 56.9842C1.44801 56.593 1.23938 55.8954 1.23938 54.8914C1.23938 53.6657 1.52625 51.0448 2.09997 47.0287L2.19776 46.266C2.28904 45.4706 2.39987 44.8838 2.53026 44.5057C2.6737 44.1275 2.86928 43.8472 3.11703 43.6646C3.37781 43.469 3.78203 43.2995 4.32967 43.1561C4.95556 42.9736 5.71835 42.8106 6.61805 42.6671C7.51776 42.5107 8.30011 42.4324 8.96511 42.4324C9.87785 42.4324 10.7645 42.5824 11.6251 42.8823C12.4857 43.1691 13.1898 43.5864 13.7375 44.134C14.2851 44.6687 14.5589 45.2815 14.5589 45.9726C14.5589 46.5333 14.3764 47.0222 14.0113 47.4395C13.6592 47.8437 13.2811 48.1566 12.8769 48.3783C12.4857 48.6 11.8924 48.8999 11.097 49.278C12.4661 49.7344 13.5875 50.2755 14.4611 50.9014C15.3478 51.5273 15.7911 52.3879 15.7911 53.4832C15.7911 54.3307 15.4782 55.0087 14.8523 55.5173C14.2264 56.0128 13.3789 56.3844 12.3097 56.6321C11.2535 56.8799 9.90393 57.082 8.26099 57.2384C7.85678 57.2906 7.19178 57.3558 6.266 57.434C5.35325 57.5253 4.61654 57.5709 4.05585 57.5709ZM4.46659 48.9651C5.75747 48.8477 6.96359 48.6978 8.08496 48.5152C9.21937 48.3196 10.2625 48.0132 11.2144 47.596C12.1662 47.1657 12.6422 46.605 12.6422 45.9139C12.6422 45.6792 12.4792 45.4445 12.1532 45.2098C11.8272 44.962 11.3839 44.7599 10.8232 44.6035C10.2755 44.447 9.68879 44.3688 9.0629 44.3688C8.31967 44.3688 7.45256 44.4209 6.46158 44.5252C5.48364 44.6165 4.70781 44.7925 4.13409 45.0533C3.99065 46.8006 3.91894 48.0719 3.91894 48.8673V49.0237L4.46659 48.9651ZM4.13409 55.5955C5.00771 55.5955 6.19428 55.5368 7.69379 55.4195C9.1933 55.3021 10.595 55.0674 11.8989 54.7154C13.2029 54.3503 13.8548 53.8417 13.8548 53.1898C13.8548 52.6812 13.4376 52.2379 12.603 51.8598C11.7685 51.4816 10.7645 51.1948 9.59099 50.9992C8.4305 50.8036 7.38085 50.7058 6.44202 50.7058C5.47712 50.7058 4.58394 50.7384 3.76247 50.8036C3.43649 52.3161 3.2735 53.8026 3.2735 55.263V55.5759C3.42997 55.589 3.71683 55.5955 4.13409 55.5955ZM22.3964 57.5123C21.9009 57.5123 21.3989 57.4405 20.8903 57.2971C19.2865 56.8277 18.1651 56.1757 17.5262 55.3412C16.8873 54.5067 16.5678 53.418 16.5678 52.0749C16.5678 51.3708 16.633 50.4124 16.7634 49.1998C16.9068 47.9741 17.0698 46.8201 17.2524 45.7379C17.4349 44.6426 17.5849 43.9515 17.7022 43.6646C17.8978 43.2995 18.1717 43.117 18.5237 43.117C18.7715 43.117 18.9605 43.2278 19.0909 43.4495C19.2213 43.6712 19.2865 44.0363 19.2865 44.5448C19.2865 45.1185 19.1887 46.0182 18.9931 47.2439C18.8627 48.0654 18.7584 48.7825 18.6802 49.3954C18.615 49.9952 18.5824 50.621 18.5824 51.273C18.5824 52.6682 18.8041 53.7309 19.2474 54.4611C19.7038 55.1913 20.5187 55.5564 21.6922 55.5564C23.0614 55.5564 24.2023 55.087 25.115 54.1482C26.0278 53.2093 26.7188 52.1271 27.1883 50.9014C27.6577 49.6627 27.9836 48.4826 28.1662 47.3612L28.3227 46.3246C28.5052 44.9555 28.6552 44.0297 28.7725 43.5473C28.8116 43.4169 28.8703 43.3126 28.9486 43.2343C29.1441 43.0388 29.3788 42.941 29.6527 42.941C29.9656 42.941 30.2003 43.0583 30.3568 43.293C30.5133 43.5147 30.5915 43.7885 30.5915 44.1145V44.2905C30.2134 47.7068 29.418 50.7645 28.2053 53.4636C26.9927 56.1627 25.0563 57.5123 22.3964 57.5123ZM44.7489 56.7886C44.5533 56.7886 44.123 56.6126 43.458 56.2605C42.793 55.9215 41.802 55.3804 40.485 54.6371C38.803 53.6722 37.4143 52.9094 36.319 52.3487C35.2368 51.7881 34.4218 51.4621 33.8742 51.3708C33.8481 51.5794 33.822 51.9902 33.7959 52.603C33.7698 53.3462 33.7307 53.9591 33.6786 54.4415C33.6264 54.924 33.5091 55.3478 33.3265 55.7129C33.157 56.0649 32.9027 56.2409 32.5637 56.2409C32.2638 56.2409 32.0552 56.0975 31.9378 55.8106C31.8205 55.5107 31.7618 55.0283 31.7618 54.3633C31.7618 53.6983 31.7944 52.6095 31.8596 51.097C31.9248 49.5714 32.0161 48.111 32.1334 46.7158C32.2508 45.3076 32.4007 44.3818 32.5833 43.9385C32.7528 43.5082 33.0266 43.293 33.4047 43.293C33.9394 43.293 34.2067 43.7103 34.2067 44.5448C34.2067 44.7534 34.1806 45.1576 34.1284 45.7574C34.0502 46.4615 34.0111 47.0157 34.0111 47.4199L34.0306 48.1045C34.3566 48.0002 34.8325 47.7524 35.4584 47.3612C36.0843 46.9701 36.9058 46.4224 37.9228 45.7183C39.2398 44.8447 40.2634 44.1862 40.9936 43.7429C41.7368 43.2865 42.2518 43.0583 42.5387 43.0583C42.7343 43.0583 42.9038 43.1431 43.0472 43.3126C43.2037 43.469 43.2819 43.6581 43.2819 43.8798C43.2819 44.0884 43.1581 44.3101 42.9103 44.5448C42.5583 44.8968 41.9259 45.3858 41.0131 46.0117C40.1004 46.6376 38.9594 47.3873 37.5903 48.261C36.2473 49.1346 35.491 49.6301 35.3215 49.7474C35.6866 49.9952 36.7102 50.5363 38.3922 51.3708C39.8787 52.1271 41.0783 52.753 41.9911 53.2484C42.9038 53.7309 43.7057 54.2264 44.3968 54.7349C45.1009 55.2434 45.453 55.6672 45.453 56.0062C45.453 56.1757 45.3682 56.3453 45.1987 56.5148C45.0422 56.6973 44.8923 56.7886 44.7489 56.7886ZM58.3376 56.9255C57.9986 56.9255 57.7639 56.7821 57.6335 56.4952C57.5031 56.2214 57.4379 55.7911 57.4379 55.2043C57.4379 54.8132 57.464 54.2981 57.5162 53.6592C57.5683 53.0203 57.6009 52.5769 57.614 52.3292C57.6531 52.0032 57.6987 51.4816 57.7509 50.7645C57.5292 50.7123 57.2749 50.6797 56.9881 50.6667C56.7143 50.6536 56.2122 50.6471 55.482 50.6471C52.8872 50.6471 50.7619 50.7906 49.1059 51.0774C48.9494 51.7555 48.8321 52.6943 48.7538 53.8939C48.7017 54.6762 48.643 55.2369 48.5778 55.5759C48.4083 56.4235 48.0432 56.8473 47.4825 56.8473C47.1696 56.8473 46.9479 56.7234 46.8175 56.4756C46.6871 56.2409 46.6219 55.9476 46.6219 55.5955C46.6219 54.8262 46.824 52.8116 47.2282 49.5518C47.6324 46.279 47.9128 44.3753 48.0693 43.8407C48.1345 43.632 48.2388 43.469 48.3822 43.3517C48.5256 43.2213 48.6951 43.1561 48.8907 43.1561C49.1906 43.1561 49.3993 43.28 49.5166 43.5277C49.634 43.7624 49.6926 44.108 49.6926 44.5643C49.6926 44.9034 49.6405 45.4901 49.5362 46.3246C49.4058 47.2895 49.3406 48.0328 49.3406 48.5543L49.3797 49.1998C50.488 49.0433 51.6094 48.939 52.7438 48.8868C53.8913 48.8216 55.2539 48.776 56.8316 48.7499L57.8878 48.7304C58.0182 48.4435 58.1681 47.8111 58.3376 46.8332C58.5463 45.7379 58.7484 44.9099 58.944 44.3492C59.1395 43.7755 59.4329 43.4886 59.8241 43.4886C60.0458 43.4886 60.2218 43.5994 60.3522 43.8211C60.4956 44.0428 60.5673 44.3753 60.5673 44.8186C60.5673 45.1055 60.5347 45.4706 60.4695 45.9139C60.4043 46.3442 60.3326 46.781 60.2544 47.2243C60.0718 48.2023 59.9545 48.9455 59.9023 49.454C59.8502 49.9365 59.785 50.8558 59.7067 52.2118C59.6937 52.3813 59.6676 52.7856 59.6285 53.4245C59.5894 54.0504 59.5438 54.5784 59.4916 55.0087C59.4525 55.439 59.4003 55.765 59.3351 55.9867C59.1526 56.6126 58.8201 56.9255 58.3376 56.9255ZM62.2879 56.6712C62.1053 56.6712 61.9358 56.5995 61.7794 56.4561C61.6229 56.3257 61.5447 56.2083 61.5447 56.104C61.5447 55.7911 62.0662 54.6697 63.1094 52.7399C64.1655 50.7971 65.3065 48.8151 66.5322 46.794C67.7578 44.773 68.5793 43.5408 68.9966 43.0974C69.3356 42.7323 69.6942 42.5498 70.0723 42.5498C70.3592 42.5498 70.6069 42.6671 70.8155 42.9018C71.0242 43.1365 71.2197 43.469 71.4023 43.8993C71.624 44.447 71.8065 45.0533 71.9499 45.7183C72.1064 46.3833 72.2629 47.1526 72.4194 48.0262L72.6345 49.1215C72.7519 49.6692 72.9409 50.282 73.2017 50.9601C73.306 51.2469 73.3843 51.4751 73.4364 51.6446C73.4625 51.7881 73.4755 52.0097 73.4755 52.3096C73.4755 52.3618 73.4821 52.5052 73.4951 52.7399C73.5081 52.9746 73.5472 53.2224 73.6124 53.4832C73.6385 53.5614 73.7037 53.757 73.808 54.0699C73.9254 54.3829 74.0232 54.7023 74.1014 55.0283C74.1405 55.1065 74.1601 55.2108 74.1601 55.3412C74.1601 55.5759 74.0688 55.7846 73.8863 55.9671C73.7168 56.1497 73.5081 56.2409 73.2604 56.2409C72.8301 56.2409 72.4911 55.9671 72.2433 55.4195C71.9956 54.8718 71.7739 54.1677 71.5783 53.3071L71.4805 52.9159L64.811 53.6201C64.6545 53.7635 64.485 53.9852 64.3025 54.2851C64.1329 54.5719 64.0352 54.7414 64.0091 54.7936C63.657 55.3934 63.3506 55.8563 63.0898 56.1823C62.829 56.5082 62.5617 56.6712 62.2879 56.6712ZM66.3952 51.6055C66.8516 51.6055 67.6731 51.5208 68.8597 51.3512C70.0593 51.1687 70.7764 50.9992 71.0111 50.8427C70.9329 50.4646 70.8873 50.2168 70.8742 50.0995C70.6656 48.9911 70.4635 48.0393 70.2679 47.2439C70.0853 46.4355 69.9028 45.8552 69.7202 45.5032C69.2769 45.9726 68.5989 46.9636 67.6861 48.4761C66.7734 49.9886 66.2257 51.0253 66.0432 51.5859L66.3952 51.6055ZM87.2653 57.3949C86.9132 57.3949 86.3655 56.9255 85.6223 55.9867C84.8921 55.0348 84.0315 53.8222 83.0406 52.3487L82.1408 51.0774C80.9412 51.1948 79.4743 51.436 77.7401 51.8011C77.6228 52.0358 77.5054 52.5834 77.3881 53.444C77.2316 54.4611 77.0621 55.2369 76.8795 55.7715C76.697 56.3061 76.3906 56.5734 75.9603 56.5734C75.7125 56.5734 75.5104 56.4691 75.3539 56.2605C75.2105 56.0649 75.1388 55.7846 75.1388 55.4195C75.1388 54.7023 75.3931 53.0137 75.9016 50.3537C76.4101 47.6807 76.7948 45.8748 77.0556 44.936C77.1468 44.5187 77.2772 44.2253 77.4467 44.0558C77.6293 43.8863 77.9487 43.7298 78.4051 43.5864C78.9006 43.456 79.4678 43.3387 80.1067 43.2343C80.7457 43.13 81.3585 43.0779 81.9453 43.0779C82.8319 43.0779 83.7447 43.2148 84.6835 43.4886C85.6223 43.7494 86.4112 44.1732 87.0501 44.7599C87.7021 45.3337 88.028 46.0638 88.028 46.9505C88.028 47.5894 87.8585 48.1306 87.5195 48.5739C87.1805 49.0042 86.7763 49.3497 86.3069 49.6105C85.8375 49.8583 85.2246 50.1386 84.4683 50.4515L84.0381 50.6276C84.2206 50.9796 84.7682 51.7489 85.681 52.9355C86.4373 53.9395 87.011 54.7349 87.4022 55.3217C87.8064 55.9084 88.0085 56.3322 88.0085 56.593C88.0085 56.7756 87.9237 56.9516 87.7542 57.1211C87.5847 57.3036 87.4217 57.3949 87.2653 57.3949ZM78.1313 49.7279C78.4964 49.6757 78.6789 49.6496 78.6789 49.6496C80.5827 49.3758 82.2908 49.0237 83.8033 48.5935C85.3289 48.1632 86.0917 47.5764 86.0917 46.8332C86.0917 46.4029 85.8114 46.0508 85.2507 45.777C84.69 45.4901 84.0315 45.2815 83.2753 45.1511C82.532 45.0207 81.8866 44.9555 81.3389 44.9555C80.5305 44.9555 79.6569 45.112 78.7181 45.4249C78.692 45.6857 78.6007 46.3246 78.4442 47.3417C78.2486 48.3327 78.1443 49.1281 78.1313 49.7279ZM89.3532 56.6712C89.1706 56.6712 89.0011 56.5995 88.8446 56.4561C88.6882 56.3257 88.6099 56.2083 88.6099 56.104C88.6099 55.7911 89.1315 54.6697 90.1746 52.7399C91.2308 50.7971 92.3717 48.8151 93.5974 46.794C94.8231 44.773 95.6446 43.5408 96.0618 43.0974C96.4008 42.7323 96.7594 42.5498 97.1376 42.5498C97.4244 42.5498 97.6722 42.6671 97.8808 42.9018C98.0894 43.1365 98.285 43.469 98.4676 43.8993C98.6892 44.447 98.8718 45.0533 99.0152 45.7183C99.1717 46.3833 99.3281 47.1526 99.4846 48.0262L99.6998 49.1215C99.8171 49.6692 100.006 50.282 100.267 50.9601C100.371 51.2469 100.45 51.4751 100.502 51.6446C100.528 51.7881 100.541 52.0097 100.541 52.3096C100.541 52.3618 100.547 52.5052 100.56 52.7399C100.573 52.9746 100.613 53.2224 100.678 53.4832C100.704 53.5614 100.769 53.757 100.873 54.0699C100.991 54.3829 101.088 54.7023 101.167 55.0283C101.206 55.1065 101.225 55.2108 101.225 55.3412C101.225 55.5759 101.134 55.7846 100.952 55.9671C100.782 56.1497 100.573 56.2409 100.326 56.2409C99.8953 56.2409 99.5563 55.9671 99.3086 55.4195C99.0608 54.8718 98.8392 54.1677 98.6436 53.3071L98.5458 52.9159L91.8762 53.6201C91.7198 53.7635 91.5503 53.9852 91.3677 54.2851C91.1982 54.5719 91.1004 54.7414 91.0743 54.7936C90.7223 55.3934 90.4158 55.8563 90.1551 56.1823C89.8943 56.5082 89.627 56.6712 89.3532 56.6712ZM93.4605 51.6055C93.9169 51.6055 94.7383 51.5208 95.9249 51.3512C97.1245 51.1687 97.8417 50.9992 98.0764 50.8427C97.9981 50.4646 97.9525 50.2168 97.9395 50.0995C97.7308 48.9911 97.5287 48.0393 97.3331 47.2439C97.1506 46.4355 96.968 45.8552 96.7855 45.5032C96.3422 45.9726 95.6641 46.9636 94.7514 48.4761C93.8386 49.9886 93.291 51.0253 93.1084 51.5859L93.4605 51.6055Z" fill="#000"/>
<path d="M115.468 56.9842C115.168 56.9842 114.94 56.8473 114.784 56.5734C114.64 56.3127 114.569 55.8498 114.569 55.1848C114.569 54.3372 114.679 53.2419 114.901 51.8989C115.123 50.5559 115.442 48.8216 115.86 46.6962L116.251 44.7013V44.3492L115.566 44.3101C114.927 44.3101 114.047 44.3362 112.926 44.3883C112.652 44.4013 112.332 44.4144 111.967 44.4274C111.615 44.4405 111.231 44.447 110.813 44.447C110.24 44.447 109.829 44.4013 109.581 44.3101C109.333 44.2188 109.21 44.0037 109.21 43.6646C109.21 43.4821 109.255 43.3256 109.346 43.1952C109.451 43.0518 109.581 42.9475 109.738 42.8823C110.077 42.778 111.191 42.6606 113.082 42.5302C114.986 42.3998 117 42.2825 119.126 42.1782C121.264 42.0739 122.601 42.0217 123.135 42.0217C124.1 42.0217 124.583 42.3346 124.583 42.9605C124.583 43.117 124.557 43.2604 124.505 43.3908C124.452 43.5082 124.387 43.5929 124.309 43.6451C124.113 43.7885 123.69 43.8928 123.038 43.958C122.399 44.0102 121.545 44.0558 120.475 44.0949C119.224 44.1471 118.441 44.2058 118.128 44.271C117.75 46.4485 117.411 48.6326 117.111 50.8232C116.994 51.7229 116.883 52.7008 116.779 53.757C116.74 54.2264 116.694 54.6632 116.642 55.0674C116.59 55.4586 116.531 55.7781 116.466 56.0258C116.257 56.6647 115.925 56.9842 115.468 56.9842ZM129.149 57.0037C128.028 57.0037 126.9 56.756 125.766 56.2605C124.644 55.765 123.712 55.0609 122.969 54.1482C122.226 53.2354 121.854 52.1988 121.854 51.0383C121.854 49.7344 122.31 48.5022 123.223 47.3417C124.136 46.1812 125.27 45.2489 126.626 44.5448C127.982 43.8407 129.273 43.4886 130.499 43.4886C131.62 43.4886 132.716 43.7885 133.785 44.3883C134.854 44.9881 135.728 45.79 136.406 46.794C137.084 47.7981 137.423 48.8608 137.423 49.9821C137.423 51.2209 137.006 52.3813 136.171 53.4636C135.337 54.5458 134.274 55.4064 132.983 56.0454C131.692 56.6843 130.414 57.0037 129.149 57.0037ZM129.149 55.0087C130.127 55.0087 131.112 54.7806 132.103 54.3242C133.094 53.8548 133.909 53.2354 134.548 52.4661C135.187 51.6968 135.506 50.8753 135.506 50.0017C135.506 49.1933 135.239 48.4305 134.704 47.7133C134.183 46.9962 133.518 46.4224 132.709 45.9921C131.914 45.5488 131.151 45.3271 130.421 45.3271C129.56 45.3271 128.602 45.6205 127.546 46.2073C126.502 46.781 125.616 47.5242 124.886 48.437C124.155 49.3497 123.79 50.2755 123.79 51.2143C123.79 52.0358 124.077 52.7334 124.651 53.3071C125.225 53.8678 125.929 54.2916 126.763 54.5784C127.598 54.8653 128.393 55.0087 129.149 55.0087ZM144.032 57.5123C143.537 57.5123 143.035 57.4405 142.526 57.2971C140.923 56.8277 139.801 56.1757 139.162 55.3412C138.523 54.5067 138.204 53.418 138.204 52.0749C138.204 51.3708 138.269 50.4124 138.4 49.1998C138.543 47.9741 138.706 46.8201 138.888 45.7379C139.071 44.6426 139.221 43.9515 139.338 43.6646C139.534 43.2995 139.808 43.117 140.16 43.117C140.408 43.117 140.597 43.2278 140.727 43.4495C140.857 43.6712 140.923 44.0363 140.923 44.5448C140.923 45.1185 140.825 46.0182 140.629 47.2439C140.499 48.0654 140.395 48.7825 140.316 49.3954C140.251 49.9952 140.218 50.621 140.218 51.273C140.218 52.6682 140.44 53.7309 140.883 54.4611C141.34 55.1913 142.155 55.5564 143.328 55.5564C144.697 55.5564 145.838 55.087 146.751 54.1482C147.664 53.2093 148.355 52.1271 148.824 50.9014C149.294 49.6627 149.62 48.4826 149.802 47.3612L149.959 46.3246C150.141 44.9555 150.291 44.0297 150.409 43.5473C150.448 43.4169 150.506 43.3126 150.585 43.2343C150.78 43.0388 151.015 42.941 151.289 42.941C151.602 42.941 151.836 43.0583 151.993 43.293C152.149 43.5147 152.228 43.7885 152.228 44.1145V44.2905C151.849 47.7068 151.054 50.7645 149.841 53.4636C148.629 56.1627 146.692 57.5123 144.032 57.5123ZM165.524 57.3949C165.172 57.3949 164.625 56.9255 163.881 55.9867C163.151 55.0348 162.291 53.8222 161.3 52.3487L160.4 51.0774C159.2 51.1948 157.733 51.436 155.999 51.8011C155.882 52.0358 155.765 52.5834 155.647 53.444C155.491 54.4611 155.321 55.2369 155.139 55.7715C154.956 56.3061 154.65 56.5734 154.219 56.5734C153.972 56.5734 153.77 56.4691 153.613 56.2605C153.47 56.0649 153.398 55.7846 153.398 55.4195C153.398 54.7023 153.652 53.0137 154.161 50.3537C154.669 47.6807 155.054 45.8748 155.315 44.936C155.406 44.5187 155.536 44.2253 155.706 44.0558C155.888 43.8863 156.208 43.7298 156.664 43.5864C157.16 43.456 157.727 43.3387 158.366 43.2343C159.005 43.13 159.618 43.0779 160.204 43.0779C161.091 43.0779 162.004 43.2148 162.943 43.4886C163.881 43.7494 164.67 44.1732 165.309 44.7599C165.961 45.3337 166.287 46.0638 166.287 46.9505C166.287 47.5894 166.118 48.1306 165.779 48.5739C165.44 49.0042 165.035 49.3497 164.566 49.6105C164.097 49.8583 163.484 50.1386 162.727 50.4515L162.297 50.6276C162.48 50.9796 163.027 51.7489 163.94 52.9355C164.696 53.9395 165.27 54.7349 165.661 55.3217C166.065 55.9084 166.268 56.3322 166.268 56.593C166.268 56.7756 166.183 56.9516 166.013 57.1211C165.844 57.3036 165.681 57.3949 165.524 57.3949ZM156.39 49.7279C156.756 49.6757 156.938 49.6496 156.938 49.6496C158.842 49.3758 160.55 49.0237 162.062 48.5935C163.588 48.1632 164.351 47.5764 164.351 46.8332C164.351 46.4029 164.07 46.0508 163.51 45.777C162.949 45.4901 162.291 45.2815 161.534 45.1511C160.791 45.0207 160.146 44.9555 159.598 44.9555C158.79 44.9555 157.916 45.112 156.977 45.4249C156.951 45.6857 156.86 46.3246 156.703 47.3417C156.508 48.3327 156.403 49.1281 156.39 49.7279Z" fill="#000"/>
<path d="M78.9312 23.2744C75.7743 27.7091 75.4956 31.7007 75.7618 33.1727C75.8193 33.4907 76.1338 33.8229 76.1338 33.8229C76.4034 32.8793 77.1622 30.4432 78.0403 28.2479C78.9185 26.0525 80.6593 23.7128 81.42 22.8173C82.4406 21.45 84.8921 18.6808 86.5328 18.5421C88.1736 18.4035 91.3564 22.7018 92.7427 24.8682C94.3366 27.2715 96.3344 33.7074 97.134 36.6249H103.056L104.933 52.5411L105.726 58.2703L105.624 39.0341C105.647 38.1266 105.744 36.275 105.507 35.6604C105.27 35.0458 104.692 34.7894 104.232 34.7894L98.9632 34.6166C98.9056 34.667 98.9004 34.2884 98.4969 32.1216C98.168 28.7392 95.3814 23.5209 92.7427 20.5497C90.8638 18.4342 87.763 16.541 86.4007 15.8989C85.2262 16.5096 82.0881 18.8397 78.9312 23.2744Z" fill="#000"/>
<path fill-rule="evenodd" clip-rule="evenodd" d="M59.4947 29.9568C59.3318 26.0534 59.5433 22.2491 59.4348 20.7014C59.4348 17.9182 59.596 17.7908 59.348 15.9476C58.9553 13.0291 56.9902 8.72663 56.9902 8.72663H63.4607C63.8921 6.48744 65.0136 1.7287 66.0489 0.607162C67.0842 -0.514376 68.4214 5.55283 68.9606 8.72663H75.1722C75.1722 8.72663 74.1194 12.357 73.5575 14.941C72.9956 17.525 73.0375 18.7601 73.0481 21.1926C73.0826 29.129 72.7135 41.4724 72.7135 41.4724C72.7135 41.4724 72.0053 40.5773 71.9301 38.7147C71.855 36.8521 71.5647 27.651 71.4702 22.439C71.4225 19.8111 71.3085 18.3147 71.7312 15.6861C72.1 13.3933 73.2033 11.5599 73.684 10.0383L68.0617 10.2441L68.0614 10.2452C68.0614 10.2452 67.2005 10.3158 66.6712 10.3158C66.1418 10.3158 65.3503 10.2452 65.3503 10.2452L65.3503 10.2441L59.2543 9.8683C59.2543 9.8683 60.9043 12.9594 61.0703 14.9769C61.2539 17.2072 61.0703 20.7014 61.0703 20.7014C61.0703 20.7014 60.8941 29.1425 60.8941 34.7711C60.8941 35.9336 60.6157 36.6479 60.3051 37.4609C59.9946 38.274 59.9368 38.7147 59.9368 38.7147C59.8005 38.2454 59.7204 35.364 59.4947 29.9568ZM65.5988 8.67026H67.6808L66.4224 3.424L65.5988 8.67026Z" fill="#000"/>
<path d="M11.1413 38.0118C8.90019 38.83 3.84976 39.1074 1.66992 39.9579C1.66992 39.9579 7.12529 39.534 10.5793 39.1074C14.3706 38.6391 17.8576 36.3731 17.8576 36.3731C19.6478 37.2589 22.108 38.8113 24.6074 39.9458C27.4749 41.2475 30.3198 42.0796 31.0143 42.0796C32.639 42.0796 33.8959 41.4352 35.2138 40.5489C36.5317 39.6626 38.3255 37.6133 40.5545 36.3731C41.7468 38.1563 44.4024 41.7942 45.487 42.0796C46.5715 42.3649 50.6559 41.5589 52.5625 41.1203C54.007 40.8845 57.4011 40.4791 59.4209 40.7435C61.4408 41.0079 64.6087 42.1851 65.9402 42.7407C65.0986 42.188 62.7446 40.873 60.0616 40.0343C57.3785 39.1957 52.7797 39.6849 50.8157 40.0343C49.4465 40.2471 46.9135 40.5044 45.9366 40.2966C44.9597 40.0889 41.7916 36.028 40.5545 33.9653C37.7087 36.2183 32.3588 39.6113 30.8792 39.6113C28.8656 39.6113 25.3642 38.1058 23.6745 37.2164C22.3227 36.505 18.7659 35.0177 17.4319 33.9653C15.5643 34.9732 13.3824 37.1936 11.1413 38.0118Z" fill="#000"/>
</svg>
