<svg width="28" height="29" viewBox="0 0 28 29" fill="none" xmlns="http://www.w3.org/2000/svg">
<path d="M7.96343 24.4167C7.6203 24.4167 7.32908 24.2967 7.08977 24.0568C6.85045 23.8168 6.73079 23.5255 6.73079 23.1827V21.2398C6.36584 20.9631 6.02781 20.5716 5.7167 20.0653C5.40557 19.559 5.25 18.9902 5.25 18.359V7.50005C5.25 6.08792 5.9518 5.05434 7.3554 4.39931C8.75897 3.74427 10.9737 3.41675 13.9996 3.41675C17.1349 3.41675 19.3771 3.73151 20.7262 4.36102C22.0754 4.99053 22.7499 6.03688 22.7499 7.50005V18.359C22.7499 18.9902 22.5944 19.559 22.2832 20.0653C21.9721 20.5716 21.6341 20.9631 21.2692 21.2398V23.1827C21.2692 23.5255 21.1491 23.8168 20.9089 24.0568C20.6687 24.2967 20.377 24.4167 20.0339 24.4167C19.6907 24.4167 19.3995 24.2967 19.1602 24.0568C18.9209 23.8168 18.8013 23.5255 18.8013 23.1827V22.0834H9.19867V23.1827C9.19867 23.5255 9.07858 23.8168 8.8384 24.0568C8.59821 24.2967 8.30655 24.4167 7.96343 24.4167ZM14.0359 6.64751H20.7487H7.32302H14.0359ZM18.6666 14.5001H6.99997H21H18.6666ZM6.99997 12.7501H21V8.39748H6.99997V12.7501ZM9.91929 18.9423C10.3438 18.9423 10.7038 18.7938 10.9992 18.4966C11.2946 18.1994 11.4423 17.8386 11.4423 17.4141C11.4423 16.9896 11.2937 16.6296 10.9965 16.3342C10.6994 16.0388 10.3385 15.8911 9.91398 15.8911C9.48947 15.8911 9.12952 16.0397 8.83412 16.3369C8.53872 16.634 8.39102 16.9948 8.39102 17.4194C8.39102 17.8439 8.5396 18.2038 8.83677 18.4992C9.13392 18.7946 9.49476 18.9423 9.91929 18.9423ZM18.086 18.9423C18.5105 18.9423 18.8704 18.7938 19.1658 18.4966C19.4612 18.1994 19.6089 17.8386 19.6089 17.4141C19.6089 16.9896 19.4603 16.6296 19.1632 16.3342C18.866 16.0388 18.5052 15.8911 18.0806 15.8911C17.6561 15.8911 17.2962 16.0397 17.0008 16.3369C16.7054 16.634 16.5577 16.9948 16.5577 17.4194C16.5577 17.8439 16.7063 18.2038 17.0034 18.4992C17.3006 18.7946 17.6614 18.9423 18.086 18.9423ZM7.32302 6.64751H20.7487C20.5019 6.18232 19.8767 5.81923 18.8731 5.55822C17.8694 5.29722 16.257 5.16672 14.0359 5.16672C11.8506 5.16672 10.2562 5.30321 9.25251 5.57619C8.24889 5.84915 7.60572 6.20626 7.32302 6.64751ZM9.3333 20.3334H18.6666C19.3083 20.3334 19.8576 20.1049 20.3146 19.648C20.7715 19.191 21 18.6417 21 18.0001V14.5001H6.99997V18.0001C6.99997 18.6417 7.22844 19.191 7.68539 19.648C8.14233 20.1049 8.69164 20.3334 9.3333 20.3334Z" fill="#00A307"/>
</svg>
