<svg width="24" height="24" viewBox="0 0 24 24" fill="none" xmlns="http://www.w3.org/2000/svg">
<path fill-rule="evenodd" clip-rule="evenodd" d="M14.3852 15.4455C11.7349 17.5682 7.85545 17.4011 5.39866 14.9443C2.76262 12.3083 2.76262 8.03446 5.39866 5.39842C8.0347 2.76238 12.3086 2.76238 14.9446 5.39842C17.4014 7.8552 17.5685 11.7346 15.4458 14.3849L20.6015 19.5405C20.8944 19.8334 20.8944 20.3083 20.6015 20.6012C20.3086 20.8941 19.8337 20.8941 19.5408 20.6012L14.3852 15.4455ZM6.45932 13.8837C4.40907 11.8334 4.40907 8.50933 6.45932 6.45908C8.50958 4.40883 11.8337 4.40883 13.884 6.45908C15.9327 8.50783 15.9342 11.8285 13.8885 13.8792C13.887 13.8807 13.8855 13.8821 13.8839 13.8837C13.8824 13.8852 13.8809 13.8867 13.8795 13.8882C11.8288 15.9339 8.50807 15.9324 6.45932 13.8837Z" fill="#616266"/>
</svg>
