<svg width="24" height="24" viewBox="0 0 24 24" fill="none" xmlns="http://www.w3.org/2000/svg">
<path d="M11.9996 17.6884L8.10924 20.0345C7.96437 20.1191 7.81919 20.1547 7.67369 20.1412C7.52817 20.1278 7.39644 20.0787 7.27849 19.9941C7.16055 19.9095 7.06954 19.7989 7.00544 19.6624C6.94132 19.5259 6.93106 19.3749 6.97466 19.2095L8.00734 14.7922L4.57274 11.8192C4.44454 11.7076 4.36281 11.5785 4.32756 11.4317C4.29231 11.2849 4.3016 11.1423 4.35544 11.0038C4.40929 10.8653 4.48685 10.7522 4.58814 10.6644C4.68942 10.5766 4.82788 10.5192 5.00351 10.4923L9.53619 10.0961L11.2958 5.92499C11.3599 5.76987 11.457 5.65513 11.5871 5.58076C11.7172 5.50641 11.8547 5.46924 11.9996 5.46924C12.1445 5.46924 12.282 5.50641 12.4121 5.58076C12.5422 5.65513 12.6393 5.76987 12.7034 5.92499L14.463 10.0961L18.9957 10.4923C19.1713 10.5192 19.3098 10.5766 19.4111 10.6644C19.5124 10.7522 19.5899 10.8653 19.6438 11.0038C19.6976 11.1423 19.7069 11.2849 19.6717 11.4317C19.6364 11.5785 19.5547 11.7076 19.4265 11.8192L15.9919 14.7922L17.0246 19.2095C17.0682 19.3749 17.0579 19.5259 16.9938 19.6624C16.9297 19.7989 16.8387 19.9095 16.7207 19.9941C16.6028 20.0787 16.4711 20.1278 16.3255 20.1412C16.18 20.1547 16.0349 20.1191 15.89 20.0345L11.9996 17.6884Z" fill="#E3CC01"/>
</svg>
