<svg width="40" height="40" viewBox="0 0 40 40" fill="none" xmlns="http://www.w3.org/2000/svg">
<circle cx="20" cy="20" r="20" fill="#00A307"/>
<path d="M19.2774 25.6708L14.1128 20.5061C14.0379 20.4313 13.9851 20.3523 13.9543 20.2692C13.9236 20.1862 13.9082 20.0964 13.9082 20C13.9082 19.9036 13.9236 19.8139 13.9543 19.7308C13.9851 19.6477 14.0379 19.5687 14.1128 19.4939L19.2851 14.3216C19.3959 14.2108 19.5318 14.1534 19.6928 14.1492C19.8538 14.1452 19.9964 14.2052 20.1205 14.3292C20.2446 14.4451 20.3087 14.5836 20.3128 14.7446C20.3169 14.9056 20.2569 15.0482 20.1328 15.1723L15.9051 19.4H25.1912C25.3615 19.4 25.5041 19.4575 25.6189 19.5723C25.7338 19.6872 25.7912 19.8298 25.7912 20C25.7912 20.1703 25.7338 20.3128 25.6189 20.4277C25.5041 20.5425 25.3615 20.6 25.1912 20.6H15.9051L20.1405 24.8354C20.2512 24.9462 20.3087 25.0841 20.3128 25.2492C20.3169 25.4144 20.2569 25.5549 20.1328 25.6708C20.0169 25.7949 19.8764 25.8569 19.7113 25.8569C19.5461 25.8569 19.4015 25.7949 19.2774 25.6708Z" fill="white"/>
</svg>
