<svg width="40" height="40" viewBox="0 0 40 40" fill="none" xmlns="http://www.w3.org/2000/svg">
<circle cx="20" cy="20" r="20" fill="#00A307"/>
<path d="M20.7226 25.6706L25.8872 20.506C25.9621 20.4312 26.0149 20.3522 26.0457 20.2691C26.0764 20.186 26.0918 20.0963 26.0918 19.9999C26.0918 19.9035 26.0764 19.8137 26.0457 19.7307C26.0149 19.6476 25.9621 19.5686 25.8872 19.4937L20.7149 14.3214C20.6041 14.2107 20.4682 14.1532 20.3072 14.1491C20.1462 14.145 20.0036 14.205 19.8795 14.3291C19.7554 14.445 19.6913 14.5835 19.6872 14.7445C19.6831 14.9055 19.7431 15.0481 19.8672 15.1722L24.0949 19.3999H14.8088C14.6385 19.3999 14.4959 19.4573 14.3811 19.5722C14.2662 19.6871 14.2088 19.8296 14.2088 19.9999C14.2088 20.1701 14.2662 20.3127 14.3811 20.4276C14.4959 20.5424 14.6385 20.5999 14.8088 20.5999H24.0949L19.8595 24.8353C19.7488 24.946 19.6913 25.084 19.6872 25.2491C19.6831 25.4142 19.7431 25.5547 19.8672 25.6706C19.9831 25.7947 20.1236 25.8568 20.2887 25.8568C20.4539 25.8568 20.5985 25.7947 20.7226 25.6706Z" fill="white"/>
</svg>
