<svg width="28" height="29" viewBox="0 0 28 29" fill="none" xmlns="http://www.w3.org/2000/svg">
<path d="M5.31565 24.4165C4.97251 24.4165 4.68129 24.2966 4.44199 24.0566C4.20267 23.8167 4.08301 23.5254 4.08301 23.1826V14.5897L6.46572 7.79161C6.55246 7.52388 6.71175 7.31111 6.94359 7.15332C7.17542 6.99551 7.43343 6.91661 7.71761 6.91661H7.69515H11.0382V5.907C11.0382 5.60824 11.1392 5.3578 11.3413 5.1557C11.5434 4.95359 11.7938 4.85254 12.0926 4.85254H15.9515C16.2503 4.85254 16.5007 4.95359 16.7029 5.1557C16.905 5.3578 17.006 5.60824 17.006 5.907V6.91661H20.3266C20.5996 6.91661 20.8475 6.99681 21.0702 7.15723C21.2929 7.31765 21.4474 7.52911 21.5336 7.79161L23.9163 14.5897V23.1826C23.9163 23.5254 23.7962 23.8167 23.556 24.0566C23.3158 24.2966 23.0241 24.4165 22.681 24.4165C22.3379 24.4165 22.0467 24.2966 21.8074 24.0566C21.5681 23.8167 21.4484 23.5254 21.4484 23.1826V22.0832H6.55089V23.1826C6.55089 23.5254 6.4308 23.8167 6.19062 24.0566C5.95042 24.2966 5.65877 24.4165 5.31565 24.4165ZM6.54193 12.8397H21.4574L19.9856 8.66658H8.01374L6.54193 12.8397ZM8.70741 18.9871C9.13192 18.9871 9.49188 18.8385 9.78728 18.5413C10.0827 18.2442 10.2304 17.8833 10.2304 17.4588C10.2304 17.0343 10.0818 16.6743 9.78465 16.3789C9.48748 16.0835 9.12664 15.9358 8.70213 15.9358C8.27762 15.9358 7.91766 16.0844 7.62224 16.3816C7.32684 16.6787 7.17914 17.0396 7.17914 17.4641C7.17914 17.8886 7.32772 18.2486 7.62489 18.544C7.92206 18.8394 8.2829 18.9871 8.70741 18.9871ZM19.2972 18.9871C19.7217 18.9871 20.0816 18.8385 20.3771 18.5413C20.6725 18.2442 20.8202 17.8833 20.8202 17.4588C20.8202 17.0343 20.6716 16.6743 20.3744 16.3789C20.0772 16.0835 19.7164 15.9358 19.2919 15.9358C18.8674 15.9358 18.5074 16.0844 18.212 16.3816C17.9166 16.6787 17.7689 17.0396 17.7689 17.4641C17.7689 17.8886 17.9175 18.2486 18.2146 18.544C18.5118 18.8394 18.8727 18.9871 19.2972 18.9871ZM5.83298 20.3332H22.1663V14.5897H5.83298V20.3332Z" fill="#00A307"/>
</svg>
