<svg width="28" height="29" viewBox="0 0 28 29" fill="none" xmlns="http://www.w3.org/2000/svg">
<path d="M14.8753 14.1456V9.54169C14.8753 9.29379 14.7914 9.08599 14.6236 8.91828C14.4558 8.75057 14.2479 8.66672 13.9999 8.66672C13.7519 8.66672 13.5441 8.75057 13.3766 8.91828C13.2091 9.08599 13.1253 9.29379 13.1253 9.54169V14.4148C13.1253 14.5521 13.1507 14.6852 13.2016 14.8139C13.2524 14.9427 13.3325 15.0617 13.4417 15.1709L17.4375 19.1667C17.599 19.3282 17.8021 19.4109 18.0466 19.4146C18.2912 19.4184 18.498 19.3357 18.667 19.1667C18.836 18.9977 18.9205 18.7928 18.9205 18.552C18.9205 18.3112 18.836 18.1063 18.667 17.9373L14.8753 14.1456ZM14.0023 25.5834C12.4693 25.5834 11.0285 25.2925 9.67963 24.7107C8.33079 24.1289 7.1575 23.3394 6.15974 22.3421C5.16197 21.3447 4.37207 20.172 3.79004 18.8237C3.20801 17.4755 2.91699 16.0349 2.91699 14.502C2.91699 12.9691 3.20788 11.5282 3.78966 10.1794C4.37144 8.83055 5.16098 7.65725 6.15828 6.6595C7.15561 5.66173 8.32839 4.87182 9.67663 4.28979C11.0248 3.70776 12.4654 3.41675 13.9983 3.41675C15.5313 3.41675 16.9721 3.70764 18.321 4.28941C19.6698 4.87119 20.8431 5.66073 21.8409 6.65804C22.8386 7.65536 23.6285 8.82815 24.2106 10.1764C24.7926 11.5246 25.0836 12.9652 25.0836 14.4981C25.0836 16.031 24.7927 17.4719 24.2109 18.8207C23.6292 20.1696 22.8396 21.3429 21.8423 22.3406C20.845 23.3384 19.6722 24.1283 18.324 24.7103C16.9757 25.2923 15.5352 25.5834 14.0023 25.5834ZM14.0003 23.8334C16.5864 23.8334 18.7885 22.9244 20.6065 21.1063C22.4246 19.2882 23.3336 17.0862 23.3336 14.5001C23.3336 11.9139 22.4246 9.71186 20.6065 7.8938C18.7885 6.07575 16.5864 5.16672 14.0003 5.16672C11.4142 5.16672 9.2121 6.07575 7.39405 7.8938C5.57599 9.71186 4.66696 11.9139 4.66696 14.5001C4.66696 17.0862 5.57599 19.2882 7.39405 21.1063C9.2121 22.9244 11.4142 23.8334 14.0003 23.8334Z" fill="#00A307"/>
</svg>
